<?xml version="1.0" encoding="UTF-8"?>
<svg width="100px" height="100px" viewBox="0 0 100 100" version="1.1" xmlns="http://www.w3.org/2000/svg" xmlns:xlink="http://www.w3.org/1999/xlink">
    <!-- Generator: sketchtool 59 (101010) - https://sketch.com -->
    <title>4A62AC7E-F736-4803-8278-3E8514B284B1</title>
    <desc>Created with sketchtool.</desc>
    <defs>
        <polygon id="path-1" points="0 0 99.9997143 0 99.9997143 100 0 100"></polygon>
    </defs>
    <g id="Page-1" stroke="none" stroke-width="1" fill="none" fill-rule="evenodd">
        <g id="LE_2.6_Var_A_1280" transform="translate(-744.000000, -431.000000)">
            <g id="Group-18" transform="translate(209.000000, 337.000000)">
                <g id="Group-15" transform="translate(412.000000, 94.000000)">
                    <g id="Group-37" transform="translate(123.000000, 0.000000)">
                        <g id="Group-16">
                            <g id="Group-3">
                                <mask id="mask-2" fill="white">
                                    <use xlink:href="#path-1"></use>
                                </mask>
                                <g id="Clip-2"></g>
                                <path d="M99.9997143,50 C99.9997143,77.6142857 77.614,100 49.9997143,100 C22.3854286,100 -0.000285714286,77.6142857 -0.000285714286,50 C-0.000285714286,22.3857143 22.3854286,0 49.9997143,0 C77.614,0 99.9997143,22.3857143 99.9997143,50" id="Fill-1" fill="#A8E0B2" mask="url(#mask-2)"></path>
                            </g>
                            <g id="Group-48" transform="translate(11.428571, 10.000000)">
                                <path d="M75.1378313,52.5407557 L44.9974568,82.6811302 C44.1098223,83.5687647 42.6700737,83.5687647 41.7817748,82.6811302 L2.44016488,43.3388559 C1.55186596,42.4512213 1.55186596,41.0114728 2.44016488,40.1238383 L32.579875,9.98346381 C33.4681739,9.09516488 34.9079224,9.09516488 35.7955569,9.98346381 L75.1378313,49.3250737 C76.0254658,50.2133727 76.0254658,51.6524568 75.1378313,52.5407557" id="Fill-4" fill="#6FC57C"></path>
                                <g id="Group-10" transform="translate(15.712560, 20.027155)" fill="#0D82DC">
                                    <line x1="1.41895289" y1="7.04041676" x2="7.2603322" y2="1.19903745" id="Fill-6"></line>
                                    <path d="M8.25692785,1.19870525 C8.25692785,1.45383374 8.15992587,1.70896222 7.96525752,1.90363057 L2.12321382,7.74567428 C1.73387711,8.13434658 1.10269987,8.13434658 0.713363167,7.74567428 C0.324690863,7.35633758 0.324690863,6.72516033 0.713363167,6.33582363 L6.55540687,0.493779925 C6.94474358,0.105107621 7.57592082,0.105107621 7.96525752,0.493779925 C8.15992587,0.688448276 8.25692785,0.943576763 8.25692785,1.19870525" id="Fill-8"></path>
                                </g>
                                <g id="Group-15" transform="translate(12.390575, 27.999920)" fill="#0D82DC">
                                    <line x1="1.65062816" y1="2.15796178" x2="2.33495717" y2="1.47296837" id="Fill-11"></line>
                                    <path d="M3.3316857,1.47316769 C3.3316857,1.72829618 3.23468373,1.98342467 3.04001537,2.17809302 L2.35435757,2.86308643 C1.96502087,3.25242313 1.33450802,3.25242313 0.945171316,2.86308643 C0.555834615,2.47374973 0.555834615,1.84323688 0.945171316,1.45390018 L1.63016473,0.768242368 C2.01950143,0.379570064 2.65067867,0.379570064 3.04001537,0.768242368 C3.23468373,0.962910718 3.3316857,1.2180392 3.3316857,1.47316769" id="Fill-13"></path>
                                </g>
                                <polyline id="Fill-16" fill="#0D82DC" points="32.6631239 56.9239163 29.844087 45.4139009 48.400698 53.4006184 37.3604114 23.8030564"></polyline>
                                <path d="M49.2146509,53.4004856 C49.2146509,53.6190722 49.1256217,53.8330081 48.9615156,53.9898058 C48.7263191,54.214372 48.3788394,54.2761609 48.0791963,54.1472679 L31.0221295,46.8056799 L33.4524941,56.7304438 C33.5581333,57.1642951 33.29171,57.6067836 32.8558655,57.7137515 C32.420021,57.8200551 31.9795257,57.5536318 31.8718934,57.1171229 L29.0535209,45.6071076 C28.9811016,45.3061357 29.0834188,44.9918758 29.3186154,44.7925567 C29.5538119,44.5932376 29.8820241,44.5447366 30.1657217,44.6663213 L46.9736395,51.9002769 L36.5990788,24.0872855 C36.4422811,23.6687153 36.6555525,23.1983221 37.0761159,23.0415244 C37.4973437,22.8840623 37.9657436,23.0979982 38.1225413,23.5185615 L49.162828,53.1161236 C49.198041,53.2091392 49.2146509,53.3048124 49.2146509,53.4004856" id="Fill-18" fill="#0D82DC"></path>
                                <path d="M75.5368682,45.4312416 L45.3998157,75.5749381 C44.5095235,76.4652302 43.0744258,76.4652302 42.1841337,75.5749381 L2.83787299,36.2359858 C1.95488924,35.3456937 1.95488924,33.9039519 2.83787299,33.0203038 L7.45543284,28.402744 L10.7315749,25.1272662 L32.9815695,2.87660734 C33.872526,1.98631522 35.3069593,1.98631522 36.1979158,2.87660734 L75.5368682,42.2155597 C76.4271603,43.1058518 76.4271603,44.5475935 75.5368682,45.4312416" id="Fill-20" fill="#F9E699"></path>
                                <path d="M34.5901413,3.53529062 C34.3496295,3.53529062 34.1084534,3.62897062 33.9210934,3.8163306 L3.77739693,33.9593627 C3.41064973,34.3267743 3.41197852,34.9280536 3.78138331,35.300116 L43.1236576,74.635082 C43.4830965,74.9951852 44.1003214,74.9945208 44.4597602,74.635082 L74.6007991,44.4880635 C74.7775287,44.3126627 74.8758628,44.0781305 74.8758628,43.8276528 C74.8758628,43.5738531 74.7768643,43.3346702 74.5974771,43.1546185 L35.2585248,3.8156662 C35.0711648,3.62897062 34.8299886,3.53529062 34.5901413,3.53529062 M43.7920411,77.5717172 C42.8299941,77.5717172 41.9257497,77.1956684 41.2447426,76.513997 L1.89848193,37.175709 C0.497932839,35.7638652 0.499261633,33.4803324 1.89781753,32.0811121 L32.0421784,1.9367512 C33.4473783,0.532880126 35.7322399,0.532215729 37.1374398,1.9367512 L76.4763921,41.2757035 C77.1593923,41.9593682 77.5354411,42.867599 77.5334558,43.832968 C77.5314547,44.7930218 77.1560703,45.6946087 76.4763921,46.3709649 L46.3393396,76.513997 C45.6576682,77.1956684 44.7534237,77.5717172 43.7920411,77.5717172" id="Fill-22" fill="#F4CD2A"></path>
                                <polygon id="Fill-24" fill="#EFC100" points="69.3502681 45.5493715 42.9404834 71.9591562 9.24558439 38.2642572 35.6553691 11.8551369"></polygon>
                                <path d="M67.0573673,40.659143 C58.6321476,49.23053 50.6799787,57.7979306 43.2008606,66.3201523 C30.910843,55.4472937 19.3908617,44.5020159 8.64091659,33.5647108 C17.3279087,24.9926594 26.4872871,16.4259232 36.1197163,7.90370156 C45.6624518,18.7765601 55.9745592,29.7225024 67.0573673,40.659143" id="Fill-26" fill="#FFFFFF"></path>
                                <path d="M10.5200309,33.5788624 C20.8294807,44.0245137 31.7747586,54.3977456 43.084126,64.4407722 C50.109461,56.4726577 57.5340986,48.4866046 65.1819736,40.6732947 C54.9755053,30.5605064 45.1676753,20.1773085 36.0023173,9.78281588 C27.2455635,17.5615771 18.6828137,25.5575962 10.5200309,33.5788624 L10.5200309,33.5788624 Z M43.3193226,68.1992666 L42.3200693,67.314954 C30.2692347,56.6540382 18.6183672,45.6117583 7.69302124,34.4957304 L6.76419409,33.5502934 L7.70830238,32.6188086 C16.4956184,23.9470977 25.7593072,15.2966474 35.238925,6.90796963 L36.2381783,6.02432148 L37.11784,7.02689671 C46.7741875,18.0286483 57.1613718,29.0257491 67.9910445,39.7132409 L68.9344884,40.6447256 L68.0049969,41.5908271 C59.7432189,49.9961148 51.7332475,58.611352 44.1989843,67.1966913 L43.3193226,68.1992666 Z" id="Fill-28" fill="#EFC100"></path>
                                <path d="M31.416715,15.1768566 L16.0811011,30.5131349 L11.0183952,25.450429 C9.89689286,24.3289267 9.89689286,22.5111362 11.0183952,21.3896339 L22.2938784,10.1141507 C23.4147163,8.99264841 25.2331711,8.99264841 26.3546734,10.1141507 L31.416715,15.1768566 Z" id="Fill-30" fill="#D8D8D8"></path>
                                <path d="M18.2936099,12.1186368 L23.9549376,17.7799645 L18.683611,23.0506267 L13.0222833,17.3899634 C11.5665892,15.9329405 11.5659248,13.5749952 13.0222833,12.1186368 C14.4793061,10.6622783 16.8379158,10.6622783 18.2936099,12.1186368" id="Fill-32" fill="#D8D8D8"></path>
                                <path d="M17.532543,21.622638 C17.2774145,21.622638 17.022286,21.525636 16.8276177,21.3309677 C16.4389454,20.9416309 16.4389454,20.3104537 16.8276177,19.921117 L22.6696614,14.0797377 C23.0589981,13.690401 23.6901753,13.690401 24.079512,14.0797377 C24.4681843,14.4690744 24.4681843,15.1002516 24.079512,15.4889239 L18.2374683,21.3309677 C18.0428,21.525636 17.7876715,21.622638 17.532543,21.622638" id="Fill-34" fill="#FFFFFF"></path>
                                <path d="M14.4421663,24.7129482 C14.1870378,24.7129482 13.9312449,24.6159462 13.7365766,24.4206135 C13.3485687,24.0312768 13.3485687,23.4000995 13.737241,23.0114272 L14.4228988,22.3270982 C14.8122355,21.9384259 15.4434127,21.9377615 15.8327494,22.3277626 C16.2214217,22.7170993 16.2214217,23.3476122 15.832085,23.7369489 L15.1470916,24.4212779 C14.9524233,24.6159462 14.6972948,24.7129482 14.4421663,24.7129482" id="Fill-36" fill="#FFFFFF"></path>
                                <path d="M33.0634232,51.2960077 C32.6973404,51.2960077 32.3651418,51.0468588 32.2741194,50.6754608 L29.4550825,39.1654455 C29.3819988,38.8664668 29.484316,38.5502138 29.720177,38.351559 C29.9553735,38.1515755 30.2829213,38.1037389 30.5672833,38.2253236 L47.3752011,45.4592792 L37.0006404,17.6456234 C36.8431783,17.22506 37.0571141,16.7566601 37.4783419,16.5991979 C37.8949189,16.4424002 38.3666408,16.6556717 38.5241029,17.0775639 L49.5643896,46.6744615 C49.6786659,46.9794198 49.5996026,47.3235775 49.3630772,47.5481437 C49.1272163,47.7727099 48.780401,47.8344988 48.4807579,47.7062702 L31.4236911,40.3646822 L33.8540557,50.2887817 C33.9610237,50.7252906 33.693936,51.1657859 33.2574271,51.2720894 C33.1923162,51.288035 33.1278697,51.2960077 33.0634232,51.2960077" id="Fill-38" fill="#EFC100"></path>
                                <path d="M16.0797723,30.5153939 L7.45589792,28.4026111 L10.7313756,25.1271334 C10.8177472,25.2400809 10.9167424,25.3530284 11.0170664,25.4526879 L16.0797723,30.5153939 Z" id="Fill-40" fill="#EFC100"></path>
                                <polygon id="Fill-42" fill="#EFF8FE" points="56.6164333 6.99713172 58.791005 10.7111115 61.8817803 10.2613147 60.2825765 12.5083057 62.6591249 16.3731036 59.0727094 14.3307469 57.1712049 18.1377423 56.8111016 13.4603867 54.0631552 12.7747289 56.8137592 11.6014036"></polygon>
                                <polygon id="Fill-44" fill="#EFF8FE" points="63.7431552 17.9824063 65.171609 20.4234012 67.2026709 20.1277445 66.2964333 21.7169824 67.7135923 24.144025 65.3569758 22.8012784 64.1079092 25.3033979 63.8654043 22.5694038 62.0648881 21.7794357 63.8720483 21.0080707"></polygon>
                                <polygon id="Fill-46" fill="#EFF8FE" points="66.6855707 11.0503527 67.6675496 12.7266266 69.0621191 12.5239854 68.4402434 13.6155899 69.4129208 15.2832266 67.7944494 14.3610434 66.9360484 16.0791743 66.7692847 14.2015881 65.5328417 13.6587757 66.7745999 13.1285868"></polygon>
                            </g>
                        </g>
                    </g>
                </g>
            </g>
        </g>
    </g>
</svg>