<?xml version="1.0" encoding="UTF-8"?>
<svg width="100px" height="99px" viewBox="0 0 100 99" version="1.1" xmlns="http://www.w3.org/2000/svg" xmlns:xlink="http://www.w3.org/1999/xlink">
    <!-- Generator: sketchtool 59 (101010) - https://sketch.com -->
    <title>CDEFC3F2-FCA9-44FC-A61E-A8FBC7364E43</title>
    <desc>Created with sketchtool.</desc>
    <defs>
        <polygon id="path-1" points="0.000285714286 0.292957746 99.7028571 0.292957746 99.7028571 98.5914085 0.000285714286 98.5914085"></polygon>
        <polygon id="path-3" points="0 99.7076056 99.7028571 99.7076056 99.7028571 1.40901408 0 1.40901408"></polygon>
    </defs>
    <g id="Page-1" stroke="none" stroke-width="1" fill="none" fill-rule="evenodd">
        <g id="LE_2.6_Var_A_1280" transform="translate(-1155.000000, -431.000000)">
            <g id="Group-18" transform="translate(209.000000, 337.000000)">
                <g id="Group-36" transform="translate(824.000000, 93.000000)">
                    <g id="Group-16" transform="translate(122.000000, 0.000000)">
                        <g id="Group-3" transform="translate(0.000000, 1.116056)">
                            <mask id="mask-2" fill="white">
                                <use xlink:href="#path-1"></use>
                            </mask>
                            <g id="Clip-2"></g>
                            <path d="M99.7031429,49.4421127 C99.7031429,76.5857746 77.3831429,98.5914085 49.8517143,98.5914085 C22.3202857,98.5914085 0.000285714286,76.5857746 0.000285714286,49.4421127 C0.000285714286,22.2970423 22.3202857,0.292816901 49.8517143,0.292816901 C77.3831429,0.292816901 99.7031429,22.2970423 99.7031429,49.4421127" id="Fill-1" fill="#F5DA66" mask="url(#mask-2)"></path>
                        </g>
                        <mask id="mask-4" fill="white">
                            <use xlink:href="#path-3"></use>
                        </mask>
                        <g id="Clip-5"></g>
                        <rect id="Rectangle" fill="#EAB100" mask="url(#mask-4)" x="32.8571429" y="22.8571429" width="42.8571429" height="64.2857143" rx="2.8599999"></rect>
                        <rect id="Rectangle" fill="#FFFFFF" mask="url(#mask-4)" x="28.5714286" y="18.5714286" width="42.8571429" height="64.2857143" rx="2.8599999"></rect>
                        <rect id="Rectangle" fill="#F5DA66" mask="url(#mask-4)" x="32.8571429" y="24.2857143" width="34.2857143" height="47.1428571" rx="2.8599999"></rect>
                        <path d="M50.8306418,54.6846639 L50.8306418,56.787605 L49.0741201,56.787605 L49.0741201,54.6846639 C48.1291925,54.5890756 47.3118012,54.3493697 46.6204969,53.9655462 C45.8204969,53.5155462 45.2190476,52.9361345 44.8204969,52.2273109 C44.6378882,51.9184874 44.4596273,51.4567227 44.2857143,50.844958 L47.2857143,50.1478992 C47.6581781,51.4537815 48.5915114,52.1067227 50.0886128,52.1067227 C50.9987578,52.1067227 51.6480331,51.869958 52.0407867,51.3978992 C52.2233954,51.1773109 52.3132505,50.9228992 52.3132505,50.6346639 C52.3132505,50.3096639 52.2089027,50.0405462 51.9987578,49.8258403 C51.7857143,49.619958 51.5320911,49.4684874 51.2335404,49.3728992 C50.8784679,49.2552521 50.4335404,49.1405462 49.9031056,49.0287815 C48.4784679,48.7346639 47.4060041,48.3728992 46.6857143,47.944958 C45.5654244,47.2596639 45.0045549,46.1861345 45.0045549,44.7243697 C45.0045549,43.6920168 45.3074534,42.794958 45.910352,42.0346639 C46.668323,41.0831933 47.7219462,40.512605 49.0741201,40.319958 L49.0741201,38.5714286 L50.8306418,38.5714286 L50.8306418,40.2978992 C51.6958592,40.3934874 52.4161491,40.5890756 52.9886128,40.8846639 C53.7596273,41.2831933 54.3567288,41.8405462 54.7784679,42.5552521 C54.9089027,42.7831933 55.0610766,43.119958 55.2364389,43.562605 L52.4770186,44.4920168 C52.2668737,43.9684874 52.0451346,43.5964286 51.8118012,43.3743697 C51.4277433,43.012605 50.8451346,42.8317227 50.0668737,42.8317227 C48.8161491,42.8317227 48.1915114,43.2493697 48.1915114,44.0831933 C48.1915114,44.5258403 48.3799172,44.8684874 48.7581781,45.112605 C49.0190476,45.2670168 49.4900621,45.4155462 50.1654244,45.5552521 C51.1668737,45.7611345 51.910352,45.9420168 52.3900621,46.0964286 C53.4074534,46.4140756 54.1929607,46.9170168 54.7465839,47.6023109 C55.3190476,48.3111345 55.6074534,49.1331933 55.6074534,50.069958 C55.6074534,51.3096639 55.152381,52.3787815 54.2436853,53.2787815 C53.4378882,54.0758403 52.2987578,54.544958 50.8306418,54.6846639" id="Fill-31" fill="#FFFFFF" mask="url(#mask-4)"></path>
                        <path d="M53.3602857,78.4430986 L46.3788571,78.4430986 C45.2231429,78.4430986 44.2845714,77.5191549 44.2845714,76.3783099 C44.2845714,75.2388732 45.2231429,74.3135211 46.3788571,74.3135211 L53.3602857,74.3135211 C54.5174286,74.3135211 55.4545714,75.2388732 55.4545714,76.3783099 C55.4545714,77.5191549 54.5174286,78.4430986 53.3602857,78.4430986" id="Fill-12" fill="#F5DA66" mask="url(#mask-4)"></path>
                        <path d="M23.7691429,45.7097183 L11.3691429,45.7097183 C10.6605714,45.7097183 10.0862857,45.1435211 10.0862857,44.4449296 C10.0862857,43.746338 10.6605714,43.1801408 11.3691429,43.1801408 L23.7691429,43.1801408 C24.4777143,43.1801408 25.052,43.746338 25.052,44.4449296 C25.052,45.1435211 24.4777143,45.7097183 23.7691429,45.7097183" id="Fill-13" fill="#FFFFFF" mask="url(#mask-4)"></path>
                        <path d="M23.7691429,53.2980282 L7.52057143,53.2980282 C6.812,53.2980282 6.23771429,52.731831 6.23771429,52.0332394 C6.23771429,51.3346479 6.812,50.7684507 7.52057143,50.7684507 L23.7691429,50.7684507 C24.4777143,50.7684507 25.052,51.3346479 25.052,52.0332394 C25.052,52.731831 24.4777143,53.2980282 23.7691429,53.2980282" id="Fill-14" fill="#FFFFFF" mask="url(#mask-4)"></path>
                        <path d="M23.7691429,60.886338 L11.3691429,60.886338 C10.6605714,60.886338 10.0862857,60.3201408 10.0862857,59.6215493 C10.0862857,58.9229577 10.6605714,58.3567606 11.3691429,58.3567606 L23.7691429,58.3567606 C24.4777143,58.3567606 25.052,58.9229577 25.052,59.6215493 C25.052,60.3201408 24.4777143,60.886338 23.7691429,60.886338" id="Fill-15" fill="#FFFFFF" mask="url(#mask-4)"></path>
                    </g>
                </g>
            </g>
        </g>
    </g>
</svg>