<?xml version="1.0" encoding="UTF-8"?>
<svg width="100px" height="100px" viewBox="0 0 100 100" version="1.1" xmlns="http://www.w3.org/2000/svg" xmlns:xlink="http://www.w3.org/1999/xlink">
    <!-- Generator: sketchtool 59 (101010) - https://sketch.com -->
    <title>47DF76AB-072C-43D2-AADF-622619E1B074</title>
    <desc>Created with sketchtool.</desc>
    <defs>
        <polygon id="path-1" points="0.000289855072 0.000147058824 98.5510145 0.000147058824 98.5510145 100 0.000289855072 100"></polygon>
        <polygon id="path-3" points="0.533478261 0.296470588 12.7101449 0.296470588 12.7101449 12.6523529 0.533478261 12.6523529"></polygon>
        <polygon id="path-5" points="0 100 99.6666667 100 99.6666667 0 0 0"></polygon>
    </defs>
    <g id="Page-1" stroke="none" stroke-width="1" fill="none" fill-rule="evenodd">
        <g id="LE_2.6_Var_A_1280" transform="translate(-331.000000, -431.000000)">
            <g id="Group-18" transform="translate(209.000000, 337.000000)">
                <g id="Group-33" transform="translate(0.000000, 94.000000)">
                    <g id="Group-32" transform="translate(122.000000, 0.000000)">
                        <g id="Group-3">
                            <mask id="mask-2" fill="white">
                                <use xlink:href="#path-1"></use>
                            </mask>
                            <g id="Clip-2"></g>
                            <path d="M98.5510145,50.0001471 C98.5510145,77.6148529 76.4886957,100.000147 49.2756522,100.000147 C22.0611594,100.000147 0.000289855072,77.6148529 0.000289855072,50.0001471 C0.000289855072,22.3854412 22.0611594,0.000147058824 49.2756522,0.000147058824 C76.4886957,0.000147058824 98.5510145,22.3854412 98.5510145,50.0001471" id="Fill-1" fill="#5DACE8" mask="url(#mask-2)"></path>
                        </g>
                        <path d="M79.2837681,23.7601471 C79.1171014,23.7601471 78.9489855,23.6954412 78.8214493,23.5660294 C78.5663768,23.3072059 78.5663768,22.8866176 78.8214493,22.6277941 L89.4707246,11.8233824 C89.7257971,11.5645588 90.1402899,11.5645588 90.3953623,11.8233824 C90.6504348,12.0822059 90.6504348,12.5013235 90.3953623,12.7616176 L79.746087,23.5660294 C79.6185507,23.6954412 79.4504348,23.7601471 79.2837681,23.7601471" id="Fill-4" fill="#F5DA66"></path>
                        <path d="M84.8614493,27.3363235 C84.6947826,27.3363235 84.5266667,27.2716176 84.3991304,27.1422059 C84.144058,26.8833824 84.144058,26.4627941 84.3991304,26.2039706 L96.2049275,14.2245588 C96.4585507,13.9657353 96.8744928,13.9657353 97.1281159,14.2245588 C97.3846377,14.4833824 97.3846377,14.9039706 97.1281159,15.1627941 L85.3237681,27.1422059 C85.1962319,27.2716176 85.0281159,27.3363235 84.8614493,27.3363235" id="Fill-6" fill="#F5DA66"></path>
                        <g id="Group-10" transform="translate(86.956522, 20.588235)">
                            <mask id="mask-4" fill="white">
                                <use xlink:href="#path-3"></use>
                            </mask>
                            <g id="Clip-9"></g>
                            <path d="M1.18710145,12.6523529 C1.02043478,12.6523529 0.852318841,12.5876471 0.724782609,12.4582353 C0.469710145,12.1994118 0.469710145,11.7788235 0.724782609,11.52 L11.5943478,0.490588235 C11.8494203,0.231764706 12.263913,0.231764706 12.5189855,0.490588235 C12.774058,0.749411765 12.774058,1.17 12.5189855,1.42882353 L1.64942029,12.4582353 C1.52188406,12.5876471 1.35376812,12.6523529 1.18710145,12.6523529" id="Fill-8" fill="#F5DA66" mask="url(#mask-4)"></path>
                        </g>
                        <polygon id="Fill-11" fill="#0D83DD" points="68.777971 74.0030882 68.777971 70.4648529 65.662029 70.4648529 65.662029 45.3957353 68.477971 45.3957353 56.7533333 36.4766176 45.0286957 27.5560294 40.6272464 25.5560294 28.9011594 34.4766176 17.1765217 43.3972059 19.9924638 44.6766176 19.9924638 68.4663235 16.8765217 68.4663235 16.8765217 72.0030882 14.8823188 72.0030882 14.8823188 75.6972059 19.2837681 77.6957353 70.7721739 77.6957353 70.7721739 74.0030882"></polygon>
                        <mask id="mask-6" fill="white">
                            <use xlink:href="#path-5"></use>
                        </mask>
                        <g id="Clip-14"></g>
                        <polygon id="Fill-13" fill="#9ACDF1" mask="url(#mask-6)" points="24.8231884 66.3838235 69.5565217 66.3838235 69.5565217 35.9838235 24.8231884 35.9838235"></polygon>
                        <polygon id="Fill-15" fill="#9ACDF1" mask="url(#mask-6)" points="47.1902899 37.2323529 21.77 37.2323529 34.4801449 28.175 47.1902899 19.1176471 59.9004348 28.175 72.6105797 37.2323529"></polygon>
                        <polygon id="Fill-16" fill="#9ACDF1" mask="url(#mask-6)" points="19.2826087 70.0294118 75.0971014 70.0294118 75.0971014 66.2794118 19.2826087 66.2794118"></polygon>
                        <polygon id="Fill-17" fill="#9ACDF1" mask="url(#mask-6)" points="21.4463768 66.4367647 72.9347826 66.4367647 72.9347826 62.6867647 21.4463768 62.6867647"></polygon>
                        <polygon id="Fill-18" fill="#9ACDF1" mask="url(#mask-6)" points="47.1902899 19.1177941 51.9613043 21.1472059 50.4221739 23.2825 46.5743478 22.5016176"></polygon>
                        <polygon id="Fill-19" fill="#9ACDF1" mask="url(#mask-6)" points="19.2831884 70.0286765 24.0542029 72.0595588 25.7991304 70.4433824 21.7962319 67.6316176"></polygon>
                        <polygon id="Fill-20" fill="#FFFFFF" mask="url(#mask-6)" points="29.5942029 68.4132353 74.3275362 68.4132353 74.3275362 38.0132353 29.5942029 38.0132353"></polygon>
                        <polygon id="Fill-21" fill="#5DACE8" mask="url(#mask-6)" points="34.415942 64.7367647 38.1101449 64.7367647 38.1101449 40.9294118 34.415942 40.9294118"></polygon>
                        <polygon id="Fill-22" fill="#5DACE8" mask="url(#mask-6)" points="44.8811594 64.7367647 48.5753623 64.7367647 48.5753623 40.9294118 44.8811594 40.9294118"></polygon>
                        <polygon id="Fill-23" fill="#5DACE8" mask="url(#mask-6)" points="55.3463768 64.7367647 59.0405797 64.7367647 59.0405797 40.9294118 55.3463768 40.9294118"></polygon>
                        <polygon id="Fill-24" fill="#5DACE8" mask="url(#mask-6)" points="65.8115942 64.7367647 69.5057971 64.7367647 69.5057971 40.9294118 65.8115942 40.9294118"></polygon>
                        <polygon id="Fill-25" fill="#FFFFFF" mask="url(#mask-6)" points="51.9613043 39.2626471 26.5410145 39.2626471 39.2511594 30.2052941 51.9613043 21.1479412 64.6714493 30.2052941 77.3815942 39.2626471"></polygon>
                        <polygon id="Fill-26" fill="#CDE6F8" mask="url(#mask-6)" points="24.0536232 72.0588235 79.8681159 72.0588235 79.8681159 68.3088235 24.0536232 68.3088235"></polygon>
                        <polygon id="Fill-27" fill="#CDE6F8" mask="url(#mask-6)" points="26.2173913 68.4661765 77.7057971 68.4661765 77.7057971 64.7161765 26.2173913 64.7161765"></polygon>
                        <path d="M52.4566667,35.6414706 L52.4566667,36.8194118 L51.4711594,36.8194118 L51.4711594,35.6414706 C50.9436232,35.5870588 50.4842029,35.4532353 50.0972464,35.2385294 C49.6494203,34.9855882 49.3131884,34.6620588 49.0885507,34.265 C48.9856522,34.0914706 48.8871014,33.8326471 48.79,33.49 L50.4697101,33.0988235 C50.6784058,33.8311765 51.2015942,34.1973529 52.0407246,34.1973529 C52.5494203,34.1973529 52.9146377,34.065 53.1349275,33.8002941 C53.2378261,33.6767647 53.2871014,33.5326471 53.2871014,33.3723529 C53.2871014,33.19 53.2291304,33.0385294 53.1102899,32.9194118 C52.9914493,32.8032353 52.8494203,32.7194118 52.6827536,32.665 C52.4827536,32.5988235 52.2349275,32.5341176 51.9378261,32.4723529 C51.1392754,32.3076471 50.5378261,32.1047059 50.1334783,31.865 C49.505942,31.4811765 49.1928986,30.8782353 49.1928986,30.0605882 C49.1928986,29.4811765 49.3624638,28.9782353 49.7001449,28.5532353 C50.1247826,28.0194118 50.7146377,27.7002941 51.4711594,27.5929412 L51.4711594,26.6120588 L52.4566667,26.6120588 L52.4566667,27.5797059 C52.9407246,27.6326471 53.3450725,27.7429412 53.6653623,27.9076471 C54.0972464,28.1311765 54.432029,28.4444118 54.6682609,28.8444118 C54.7421739,28.9723529 54.8276812,29.1620588 54.9247826,29.4091176 L53.3784058,29.9297059 C53.2610145,29.6370588 53.1378261,29.4282353 53.005942,29.3032353 C52.79,29.1002941 52.4653623,29.0002941 52.0291304,29.0002941 C51.3276812,29.0002941 50.9769565,29.2326471 50.9769565,29.7002941 C50.9769565,29.9488235 51.0842029,30.1414706 51.2957971,30.2782353 C51.4421739,30.3635294 51.7044928,30.4473529 52.0842029,30.5252941 C52.6450725,30.6414706 53.0610145,30.7429412 53.3305797,30.8297059 C53.9001449,31.0076471 54.3407246,31.2885294 54.6508696,31.6723529 C54.9711594,32.0694118 55.1334783,32.5311765 55.1334783,33.0561765 C55.1334783,33.7502941 54.8784058,34.3488235 54.3697101,34.8532353 C53.9175362,35.3002941 53.2784058,35.5635294 52.4566667,35.6414706" id="Fill-28" fill="#9ACDF1" mask="url(#mask-6)"></path>
                        <polygon id="Fill-29" fill="#9ACDF1" mask="url(#mask-6)" points="21.7698551 37.2323529 26.5408696 39.2632353 28.337971 36.8676471 27.106087 35.4632353"></polygon>
                        <path d="M86.1953623,39.6564706 C86.1953623,48.3726471 79.2315942,55.4373529 70.6431884,55.4373529 C62.0533333,55.4373529 55.0910145,48.3726471 55.0910145,39.6564706 C55.0910145,30.9402941 62.0533333,23.8755882 70.6431884,23.8755882 C79.2315942,23.8755882 86.1953623,30.9402941 86.1953623,39.6564706" id="Fill-30" fill="#F5DA66" mask="url(#mask-6)"></path>
                        <path d="M71.6856522,47.1770588 L71.6856522,49.28 L69.9291304,49.28 L69.9291304,47.1770588 C68.9842029,47.0814706 68.1668116,46.8417647 67.4755072,46.4579412 C66.6755072,46.0079412 66.074058,45.4285294 65.6755072,44.7197059 C65.4928986,44.4108824 65.3146377,43.9491176 65.1407246,43.3373529 L68.1407246,42.6402941 C68.5131884,43.9461765 69.4465217,44.5991176 70.9436232,44.5991176 C71.8537681,44.5991176 72.5030435,44.3623529 72.8957971,43.8902941 C73.0784058,43.6697059 73.1682609,43.4152941 73.1682609,43.1270588 C73.1682609,42.8020588 73.063913,42.5329412 72.8537681,42.3182353 C72.6407246,42.1123529 72.3871014,41.9608824 72.0885507,41.8652941 C71.7334783,41.7476471 71.2885507,41.6329412 70.7581159,41.5211765 C69.3334783,41.2270588 68.2610145,40.8652941 67.5407246,40.4373529 C66.4204348,39.7520588 65.8595652,38.6785294 65.8595652,37.2167647 C65.8595652,36.1844118 66.1624638,35.2873529 66.7653623,34.5270588 C67.5233333,33.5755882 68.5769565,33.005 69.9291304,32.8123529 L69.9291304,31.0638235 L71.6856522,31.0638235 L71.6856522,32.7902941 C72.5508696,32.8858824 73.2711594,33.0814706 73.8436232,33.3770588 C74.6146377,33.7755882 75.2117391,34.3329412 75.6334783,35.0476471 C75.763913,35.2755882 75.916087,35.6123529 76.0914493,36.055 L73.332029,36.9844118 C73.1218841,36.4608824 72.9001449,36.0888235 72.6668116,35.8667647 C72.2827536,35.505 71.7001449,35.3241176 70.9218841,35.3241176 C69.6711594,35.3241176 69.0465217,35.7417647 69.0465217,36.5755882 C69.0465217,37.0182353 69.2349275,37.3608824 69.6131884,37.605 C69.874058,37.7594118 70.3450725,37.9079412 71.0204348,38.0476471 C72.0218841,38.2535294 72.7653623,38.4344118 73.2450725,38.5888235 C74.2624638,38.9064706 75.047971,39.4094118 75.6015942,40.0947059 C76.174058,40.8035294 76.4624638,41.6255882 76.4624638,42.5623529 C76.4624638,43.8020588 76.0073913,44.8711765 75.0986957,45.7711765 C74.2928986,46.5682353 73.1537681,47.0373529 71.6856522,47.1770588" id="Fill-31" fill="#FFFFFF" mask="url(#mask-6)"></path>
                    </g>
                </g>
            </g>
        </g>
    </g>
</svg>